<?xml version="1.0" encoding="UTF-8" standalone="no"?>
<svg
   xmlns:dc="http://purl.org/dc/elements/1.1/"
   xmlns:cc="http://creativecommons.org/ns#"
   xmlns:rdf="http://www.w3.org/1999/02/22-rdf-syntax-ns#"
   xmlns:svg="http://www.w3.org/2000/svg"
   xmlns="http://www.w3.org/2000/svg"
   id="svg8"
   version="1.1"
   viewBox="0 0 7.9375 26.458334"
   height="100"
   width="30">
  <defs
     id="defs2" />
  <metadata
     id="metadata5">
    <rdf:RDF>
      <cc:Work
         rdf:about="">
        <dc:format>image/svg+xml</dc:format>
        <dc:type
           rdf:resource="http://purl.org/dc/dcmitype/StillImage" />
        <dc:title></dc:title>
      </cc:Work>
    </rdf:RDF>
  </metadata>
  <g
     transform="translate(0,-270.54165)"
     id="layer1">
    <path
       id="path1092"
       d="m 1.3735486,276.03259 h 5.1978876 v 18.33323 l -0.3346984,1.23505 -0.9839768,0.95613 -1.5127584,0.31849 -1.0761159,-0.32918 -0.9138996,-0.86195 -0.3855639,-1.32158 z"
       style="fill:#ffffff;stroke:none;stroke-width:0.24841331px;stroke-linecap:butt;stroke-linejoin:miter;stroke-opacity:1" />
    <path
       id="path940"
       d="m 2.9415857e-5,272.82959 v 2.28822 A 3.9687465,2.2882217 0 0 0 3.9687647,277.40602 3.9687465,2.2882217 0 0 0 7.9375,275.11781 v -2.28822 H 3.9687647 Z"
       style="opacity:1;fill:#bf146f;fill-opacity:1;stroke:none;stroke-width:0.08613154;stroke-miterlimit:4;stroke-dasharray:none;stroke-dashoffset:18.72999954;stroke-opacity:1" />
    <ellipse
       style="opacity:1;fill:#a71161;fill-opacity:1;stroke:none;stroke-width:0.08613154;stroke-miterlimit:4;stroke-dasharray:none;stroke-dashoffset:18.72999954;stroke-opacity:1"
       id="ellipse948"
       cx="3.9687464"
       cy="272.82962"
       rx="3.9687464"
       ry="2.2882216" />
    <path
       id="path1002"
       d="m 6.4481842,277.032 c -1.3313773,0.63961 -2.9225023,0.67603 -4.3280453,0.25771 -0.2482178,-0.0797 -0.4901326,-0.17872 -0.7207676,-0.2988 0,5.88528 0,11.77059 0,17.65589 0.3381409,0.77049 1.2371692,1.11085 2.0333418,1.21541 0.9847044,0.10262 2.0977166,-0.0679 2.8273813,-0.77271 0.2571822,-0.23894 0.3448378,-0.5659 0.2970851,-0.90198 0.00192,-5.7358 0.032283,-11.47171 -0.00192,-17.20746 -0.03555,0.0173 -0.071004,0.0347 -0.1065932,0.0519 z"
       style="opacity:1;fill:#1b5e20;fill-opacity:1;stroke:none;stroke-width:0.08554611;stroke-miterlimit:4;stroke-dasharray:none;stroke-dashoffset:18.72999954;stroke-opacity:1" />
    <path
       id="path1012"
       d="m 1.5973597,295.23191 c 0.1579586,0.33617 0.4329256,0.61024 0.7357468,0.83825 0.6171625,0.42274 1.4258642,0.5909 2.1762347,0.44629 0.781962,-0.13139 1.4962249,-0.61348 1.8391122,-1.28654 -0.6167301,0.5196 -1.459368,0.74244 -2.27689,0.75794 -0.7805209,0.0111 -1.5957177,-0.14132 -2.2385438,-0.57328 -0.087338,-0.0615 -0.1692865,-0.12962 -0.2456139,-0.20276 l 0.00673,0.0138 z"
       style="opacity:1;fill:#41a445;fill-opacity:1;stroke:none;stroke-width:0.02955596;stroke-miterlimit:4;stroke-dasharray:none;stroke-dashoffset:18.72999954;stroke-opacity:1" />
    <path
       id="path1030"
       d="m 1.2939111,279.01112 c 0.9206913,0.56628 1.9219326,0.74568 2.957094,0.76215 v 0.88051 c -0.9857413,-0.0404 -1.9906727,-0.15271 -2.957094,-0.75025 z"
       style="fill:#ffffff;stroke:none;stroke-width:0.04598588px;stroke-linecap:butt;stroke-linejoin:miter;stroke-opacity:1" />
    <path
       style="fill:#ffffff;stroke:none;stroke-width:0.04598588px;stroke-linecap:butt;stroke-linejoin:miter;stroke-opacity:1"
       d="m 1.2939111,280.71823 c 0.9206913,0.56628 1.9219326,0.74568 2.957094,0.76215 v 0.88052 c -0.9857413,-0.0404 -1.9906727,-0.15272 -2.957094,-0.75025 z"
       id="path1032" />
    <path
       id="path1034"
       d="m 1.2939111,282.42534 c 0.9206913,0.56627 1.9219326,0.74568 2.957094,0.76213 v 0.88052 c -0.9857413,-0.0404 -1.9906727,-0.1527 -2.957094,-0.75024 z"
       style="fill:#ffffff;stroke:none;stroke-width:0.04598588px;stroke-linecap:butt;stroke-linejoin:miter;stroke-opacity:1" />
    <rect
       transform="matrix(0.97014975,0.24250661,-0.80003661,0.59995119,0,0)"
       y="339.0007"
       x="281.65463"
       height="1.1627717"
       width="4.7116351"
       id="rect1036"
       style="opacity:1;fill:#ffffff;fill-opacity:1;stroke:none;stroke-width:0.05610566;stroke-miterlimit:4;stroke-dasharray:none;stroke-dashoffset:18.72999954;stroke-opacity:1" />
    <path
       d="m 1.7495117,279.74505 c -0.0ho272,0.0132 -0.0709,0.0359 0.0514,-0.0279 0.002,-10e-4 -0.005,0.003 -0.007,0.005 -0.008,0.005 -0.005,0.003 -0.0114,0.008 9e-4,-0.003 -0.003,0.003 -0.002,0.003 0.0123,0.003 0.0308,0.003 0.0433,0.004 0.0498,0.004 0.0992,-3.4e-4 0.1486502,-0.006 0.04,-0.005 0.0802,-0.007 0.1203602,-0.0102 0.0376,-0.003 0.0495,-0.0222 -0.0688,0.0507 -0.003,0.002 -0.007,0.002 -0.0111,0.003 -0.0134,0.005 -0.0148,0.006 -0.0279,0.0127 -0.0491,0.0254 0.0276,-0.0151 0.0418,-0.0221 0.005,-0.003 -0.0112,0.007 -0.0166,0.01 -0.015,0.009 -0.0296,0.0193 -0.0444,0.029 -0.004,0.003 -0.0359,0.0247 -0.03,0.0308 0.0213,0.004 0.0432,0.003 0.0647,0.003 0.0319,10e-4 0.0639,-6.7e-4 0.0958,3.3e-4 0.0127,3.4e-4 0.0407,0.002 0.0533,0.003 0.0436,0.005 0.0879,0.003 0.1313501,0.009 0.0179,0.004 0.0283,0.009 0.0279,0.0271 -0.001,0.01 -0.003,0.0199 -0.003,0.03 7.2e-4,0.002 7.2e-4,0.004 0.003,0.005 0.005,0.003 0.0198,0.002 0.026,0.003 0.038,5.1e-4 0.0763,-0.003 0.1140302,-0.007 0.0574,-0.007 0.1152401,-0.0107 0.1731102,-0.0128 0.0431,-0.001 0.0862,-0.002 0.1293102,-0.002 0.0187,10e-4 0.036,10e-4 0.0352,0.0229 -0.005,0.0153 -0.0198,0.0259 -0.0315,0.0372 -0.0131,0.0118 -0.0255,0.0239 -0.0342,0.0388 -0.004,0.01 -0.0107,0.0182 0.002,0.0242 0.0319,0.007 0.0654,0.006 0.098,0.006 0.0447,-5.1e-4 0.0894,-0.001 0.1338801,-0.006 0.0277,-0.003 0.0553,-0.007 0.083,-0.01 0.0894,-0.0107 0.1784503,-0.0233 0.2676904,-0.0349 0.0342,-0.005 0.0685,-0.008 0.1027801,-0.0119 0.0169,-0.002 0.0336,-0.004 0.0507,-0.004 0.0134,10e-4 0.0183,0.009 0.0204,0.0201 0,0 -0.0791,0.0386 -0.0791,0.0386 v 0 c -3.6e-4,-0.009 -0.002,-0.01 -0.0124,-0.0102 -0.0496,10e-4 -0.099,0.009 -0.1482702,0.0137 -0.0893,0.0114 -0.1783902,0.0239 -0.2677203,0.0348 -0.008,0.001 -0.075,0.009 -0.0838,0.0101 -0.0452,0.005 -0.0908,0.006 -0.1361801,0.006 -0.0183,-1.3e-4 -0.0302,-9e-5 -0.0481,-6.7e-4 -0.0153,-5e-4 -0.032,-5e-4 -0.0471,-0.005 -0.003,-8.4e-4 -0.005,-0.002 -0.009,-0.003 -0.0144,-0.0106 -0.0134,-0.0195 -0.007,-0.0347 0.007,-0.0162 0.0194,-0.0294 0.0333,-0.0414 0.0111,-0.0107 0.023,-0.0209 0.0328,-0.0328 5.3e-4,-6.7e-4 0.003,-0.004 0.002,-0.005 -0.003,-0.006 -0.0226,-0.005 -0.0278,-0.006 -0.0424,-3.4e-4 -0.0848,-1.7e-4 -0.1272302,10e-4 -0.0579,0.002 -0.1156502,0.006 -0.1729902,0.0136 -0.0389,0.004 -0.0781,0.008 -0.1173302,0.007 -0.0148,-10e-4 -0.0314,-0.002 -0.0362,-0.0173 -10e-4,-0.0104 7.2e-4,-0.0208 0.002,-0.0312 0.002,-0.0149 -0.004,-0.0131 -0.0195,-0.0173 -0.0428,-0.006 -0.0863,-0.006 -0.1292801,-0.01 -0.0499,-0.003 -0.0999,-0.003 -0.1500202,-0.002 -0.0159,-5e-5 -0.0511,0.002 -0.0655,-0.005 -0.002,-10e-4 -0.004,-0.003 -0.006,-0.004 -10e-4,-0.002 -0.003,-0.004 -0.003,-0.006 -0.004,-0.0147 0.0203,-0.03 0.0298,-0.0371 0.0541,-0.0354 0.1084602,-0.0704 0.1682002,-0.0975 0.0149,-0.007 0.0146,-0.007 0.0296,-0.0121 0.004,-10e-4 0.015,-0.006 0.0119,-0.003 -0.0622,0.0539 -0.0373,0.0476 -0.0726,0.0483 -0.0394,0.002 -0.0787,0.005 -0.1178902,0.009 -0.0502,0.005 -0.1004301,0.008 -0.1509102,0.005 -0.0129,-6.7e-4 -0.0505,0.001 -0.0536,-0.0163 -3.6e-4,-0.002 5.4e-4,-0.004 9e-4,-0.006 0.005,-0.007 0.0108,-0.0111 0.0187,-0.0154 0.033,-0.0182 0.0658,-0.0386 0.1009601,-0.0537 0,0 -0.07,0.0516 -0.07,0.0516 z"
       id="path1064"
       style="opacity:1;fill:#000000;fill-opacity:1;stroke:none;stroke-width:0.08613154;stroke-miterlimit:4;stroke-dasharray:none;stroke-dashoffset:18.72999954;stroke-opacity:1" />
    <path
       d="m 1.8854719,281.54918 c 0.0309,0.002 0.0614,-0.002 0.092,-0.005 0.0235,-10e-4 0.0472,-0.005 0.0709,-0.005 0.009,9e-5 0.0207,0.002 0.0294,0.003 0.0209,0.003 0.0367,0.0125 0.0514,0.0256 0.01,0.0112 0.0196,0.0223 0.0289,0.0339 0.01,0.0107 0.0172,0.0218 0.0221,0.0349 0.003,0.0113 0.0131,0.0161 0.0244,0.0197 0.0299,0.005 0.0608,0.007 0.0912,0.008 0.0665,0.003 0.1330101,0.003 0.1995202,0.004 0.014,9e-5 0.028,1.4e-4 0.042,1.7e-4 0.0369,1.3e-4 0.052,6.7e-4 0.089,-0.001 0.0466,-0.002 0.0931,-0.007 0.1395102,-0.0113 0.0654,-0.008 0.1306802,-0.0172 0.1961802,-0.025 0.006,-0.002 0.0135,-9.9e-4 0.0198,-0.003 7.2e-4,-1.7e-4 0.002,-0.002 10e-4,-0.002 -0.0247,0.017 -0.0488,0.0347 -0.0739,0.0513 -10e-4,8.4e-4 -0.003,3.4e-4 -0.004,6.8e-4 -0.002,5e-4 -0.004,10e-4 -0.006,0.002 -0.002,8.4e-4 -0.005,0.002 -0.008,0.003 -0.01,0.004 -0.0189,0.009 -0.0157,0.008 0.1199302,-0.0639 0.0789,-0.0458 0.0551,-0.027 -0.01,0.008 -0.0153,0.0183 -0.0165,0.0303 0.002,0.016 0.0208,0.0235 0.0344,0.0301 0.0361,0.0161 0.0751,0.0252 0.1141902,0.0327 0.0683,0.0105 0.1377502,0.0114 0.2068103,0.0125 0.057,8.4e-4 0.1150701,0.001 0.1704402,-0.0135 0.009,-0.002 0.0166,-0.005 0.0249,-0.008 0.007,-0.003 0.0148,-0.005 0.022,-0.008 0.006,-0.003 0.0246,-0.0124 0.0186,-0.009 -0.0195,0.0106 -0.039,0.0214 -0.0591,0.0312 -0.004,0.002 0.009,-0.005 0.0126,-0.008 0.009,-0.007 0.01,-0.008 0.0169,-0.0158 0,0 0.0811,-0.0322 0.0811,-0.0322 v 0 c -0.009,0.0102 -0.0176,0.0205 -0.0295,0.0273 -0.0429,0.0242 -0.0833,0.0491 -0.1301802,0.0644 -0.009,0.002 -0.0165,0.005 -0.0249,0.007 -0.0557,0.0129 -0.1134602,0.0122 -0.1704002,0.0112 -0.07,-10e-4 -0.1402602,-0.002 -0.2094603,-0.0125 -0.0402,-0.008 -0.0804,-0.0166 -0.1175302,-0.0333 -0.0172,-0.008 -0.0364,-0.0181 -0.0404,-0.0375 -5.4e-4,-0.0136 0.004,-0.0262 0.0139,-0.0365 0.0332,-0.0307 0.0768,-0.0516 0.1211602,-0.065 0.002,-5e-4 0.005,-9.9e-4 0.007,-0.002 0.002,-3.4e-4 0.006,-0.002 0.005,-8.4e-4 -0.0659,0.0516 -0.0432,0.0483 -0.0889,0.0518 -0.0643,0.006 -0.1282802,0.0148 -0.1924103,0.0222 -0.0466,0.004 -0.0933,0.009 -0.1399902,0.011 -0.0342,0.002 -0.0554,0.001 -0.0896,0.001 -0.0141,2e-5 -0.0283,3e-5 -0.0424,4e-5 -0.0673,-1.3e-4 -0.1347501,1e-5 -0.2020802,-0.002 -0.0316,-0.002 -0.0642,-0.002 -0.095,-0.009 -0.0132,-0.005 -0.0244,-0.0124 -0.0288,-0.0258 -0.004,-0.0124 -0.0117,-0.0226 -0.0204,-0.0326 -0.009,-0.0112 -0.0185,-0.0219 -0.0281,-0.0327 -0.0137,-0.0118 -0.0284,-0.02 -0.0475,-0.0218 -0.0328,-0.003 -0.0655,-9e-5 -0.0982,0.003 -0.0314,0.003 -0.0628,0.006 -0.0945,0.005 0,0 0.0721,-0.0489 0.0721,-0.0489 z"
       id="path1066"
       style="opacity:1;fill:#000000;fill-opacity:1;stroke:none;stroke-width:0.08613154;stroke-miterlimit:4;stroke-dasharray:none;stroke-dashoffset:18.72999954;stroke-opacity:1" />
    <path
       d="m 1.6404816,283.1146 c 0.0424,0.0208 0.0926,0.022 0.1394102,0.0252 0.0571,0.003 0.1143401,0.004 0.1713902,-6.7e-4 0.0331,-0.003 0.0618,-0.007 0.0949,-0.0111 0.0751,-0.009 0.1493502,-0.0225 0.2235603,-0.0362 0.0123,-0.001 0.0581,-0.0149 0.0554,0.011 -3.6e-4,0.003 -0.002,0.006 -0.003,0.009 -0.0162,0.0229 -0.0332,0.045 -0.0479,0.0688 -0.011,0.0194 -0.0196,0.0404 -0.0216,0.0624 10e-5,0.0128 0.009,0.015 0.0205,0.0162 0.0221,0.002 0.0442,10e-4 0.0661,-0.002 0.005,-8.4e-4 0.0107,-0.002 0.0153,-0.003 0.0113,-0.002 0.0241,-0.006 0.0353,-0.009 0.021,-0.005 0.0423,-0.01 0.0635,-0.0145 0.0431,-0.007 0.0851,-0.0179 0.1278801,-0.0263 0.009,-8.4e-4 0.0395,-0.0101 0.0434,0.002 7.2e-4,0.002 1.4e-4,0.005 1.9e-4,0.007 -0.001,0.002 -0.002,0.004 -0.004,0.006 -0.001,0.002 -0.012,0.0118 -0.0131,0.0129 -0.007,0.007 -0.0144,0.0149 -0.0214,0.0225 -0.0111,0.0115 -0.0186,0.0251 -0.0208,0.0404 3.6e-4,0.002 3.6e-4,0.003 0.001,0.004 0.004,0.008 0.0316,0.0138 0.0396,0.0155 0.0346,0.005 0.0696,0.008 0.1045001,0.009 0.0493,0.002 0.0987,0.002 0.1480302,0.003 0.0371,0.002 0.0742,10e-4 0.1111602,0.005 0.0123,0.001 0.0383,0.005 0.0509,0.006 0.029,0.003 0.0608,0.007 0.0816,0.0279 0.0108,0.0158 0.009,0.0329 0.004,0.0503 -0.008,0.0231 -0.0192,0.045 -0.0296,0.0671 -0.006,0.0161 -0.0139,0.0333 -0.0118,0.0508 7.1e-4,0.002 0.001,0.003 0.002,0.004 0.0117,0.0123 0.0504,0.0157 0.0659,0.0177 0.0768,0.003 0.1530102,-0.0108 0.2285703,-0.0219 0.1162001,-0.0157 0.2300203,-0.0425 0.3439304,-0.0685 0.0706,-0.0181 0.1416202,-0.0359 0.2108003,-0.0587 0.0295,-0.01 0.0431,-0.0154 0.0711,-0.0263 0.067,-0.0335 -0.0208,0.0124 -0.0317,0.0178 -0.006,0.003 0.012,-0.007 0.0179,-0.0144 0,0 0.081,-0.0352 0.081,-0.0352 v 0 c -3.7e-4,0.002 -1.9e-4,0.004 -10e-4,0.006 -0.003,0.005 -0.0123,0.0123 -0.0169,0.0148 -0.0803,0.045 -0.064,0.0371 -0.1151402,0.0598 -0.0906,0.0336 -0.1845402,0.0583 -0.2787803,0.0813 -0.1145602,0.0262 -0.2291404,0.0526 -0.3458905,0.0691 -0.0773,0.0117 -0.1552502,0.0264 -0.2339003,0.0227 -0.0213,-0.003 -0.0582,-0.005 -0.0729,-0.0229 -0.002,-0.002 -0.002,-0.005 -0.003,-0.007 -0.003,-0.019 0.004,-0.0375 0.0107,-0.0553 0.01,-0.0219 0.0215,-0.0432 0.0298,-0.0658 0.004,-0.0143 0.009,-0.0291 -3.6e-4,-0.0427 -0.0191,-0.0191 -0.0498,-0.0208 -0.0759,-0.0248 -0.017,-0.002 -0.0329,-0.005 -0.0502,-0.006 -0.0369,-0.003 -0.074,-0.003 -0.1109302,-0.005 -0.0496,-10e-4 -0.0993,-3.3e-4 -0.1489202,-0.003 -0.0357,-0.002 -0.0715,-0.004 -0.1067501,-0.01 -0.015,-0.004 -0.0376,-0.008 -0.0457,-0.0224 -10e-4,-0.002 -0.002,-0.005 -0.002,-0.007 5.4e-4,-0.0168 0.008,-0.0326 0.019,-0.0455 0.0123,-0.0133 0.024,-0.0276 0.0387,-0.0387 10e-4,4e-5 0.005,5e-4 0.004,8.3e-4 -10e-4,1.7e-4 -0.002,-1.6e-4 -0.003,-1.6e-4 -0.0109,1.3e-4 -0.0218,0.002 -0.0325,0.004 -0.0424,0.008 -0.0843,0.0184 -0.1269301,0.026 -0.0387,0.009 -0.0768,0.0197 -0.1158502,0.0266 -0.0228,0.002 -0.046,0.003 -0.0688,1.7e-4 -0.0164,-0.004 -0.025,-0.0102 -0.0269,-0.0267 10e-4,-0.0232 0.0107,-0.0456 0.0211,-0.0663 0.0142,-0.0236 0.0299,-0.0461 0.0469,-0.068 0.002,-0.002 0.003,-0.004 0.004,-0.006 7.2e-4,-8.3e-4 0.002,-8.3e-4 0.002,-0.002 -4e-5,-0.006 -0.0446,0.002 -0.0463,0.002 -0.0734,0.0126 -0.1467502,0.0256 -0.2209103,0.0339 -0.0347,0.004 -0.0602,0.008 -0.0953,0.0107 -0.0579,0.005 -0.1158701,0.004 -0.1737802,9.9e-4 -0.0493,-0.003 -0.1016002,-0.005 -0.1462802,-0.0265 0,0 0.0751,-0.0443 0.0751,-0.0443 z"
       id="path1072"
       style="opacity:1;fill:#000000;fill-opacity:1;stroke:none;stroke-width:0.08613154;stroke-miterlimit:4;stroke-dasharray:none;stroke-dashoffset:18.72999954;stroke-opacity:1" />
    <flowRoot
       transform="matrix(0.10032144,0.02507718,-0.10032144,0.07523153,-20.706478,235.47382)"
       style="font-style:normal;font-weight:normal;font-size:6.66666698px;line-height:1.25;font-family:sans-serif;letter-spacing:0px;word-spacing:0px;fill:#000000;fill-opacity:1;stroke:none"
       id="flowRoot1078"
       xml:space="preserve"><flowRegion
         style="font-size:6.66666698px"
         id="flowRegion1080"><rect
           style="font-size:6.66666698px"
           y="304.84113"
           x="540.53571"
           height="41.363964"
           width="79.64286"
           id="rect1082" /></flowRegion><flowPara
         style="font-style:normal;font-variant:normal;font-weight:normal;font-stretch:normal;font-family:'Ubuntu Mono';-inkscape-font-specification:'Ubuntu Mono'"
         id="flowPara1084">MIRAKURU</flowPara></flowRoot>  </g>
</svg>
